<svg width="64" height="64" viewBox="0 0 64 64" xmlns="http://www.w3.org/2000/svg">
  <!-- Flying Bat -->
  <!-- Body -->
  <rect x="24" y="28" width="16" height="16" fill="#5D3FD3" rx="4"/>
  <!-- Head -->
  <rect x="26" y="20" width="12" height="12" fill="#5D3FD3" rx="2"/>
  <!-- Ears -->
  <rect x="24" y="16" width="4" height="8" fill="#5D3FD3"/>
  <rect x="36" y="16" width="4" height="8" fill="#5D3FD3"/>
  <rect x="22" y="12" width="4" height="4" fill="#5D3FD3"/>
  <rect x="38" y="12" width="4" height="4" fill="#5D3FD3"/>
  <!-- Wings -->
  <rect x="8" y="32" width="16" height="8" fill="#5D3FD3"/>
  <rect x="4" y="28" width="8" height="4" fill="#5D3FD3"/>
  <rect x="40" y="32" width="16" height="8" fill="#5D3FD3"/>
  <rect x="52" y="28" width="8" height="4" fill="#5D3FD3"/>
  <!-- Eyes -->
  <rect x="28" y="24" width="4" height="4" fill="#FF8C00"/>
  <rect x="36" y="24" width="4" height="4" fill="#FF8C00"/>
  <!-- Fangs -->
  <rect x="28" y="32" width="2" height="4" fill="#FFFFFF"/>
  <rect x="34" y="32" width="2" height="4" fill="#FFFFFF"/>
</svg>
