<svg width="64" height="64" viewBox="0 0 64 64" xmlns="http://www.w3.org/2000/svg">
  <!-- Happy Pumpkin -->
  <rect x="12" y="20" width="40" height="32" fill="#FF8C00" rx="4"/>
  <rect x="8" y="24" width="8" height="24" fill="#FF8C00" rx="2"/>
  <rect x="48" y="24" width="8" height="24" fill="#FF8C00" rx="2"/>
  <rect x="16" y="24" width="4" height="24" fill="#D97000"/>
  <rect x="24" y="24" width="4" height="24" fill="#D97000"/>
  <rect x="36" y="24" width="4" height="24" fill="#D97000"/>
  <rect x="44" y="24" width="4" height="24" fill="#D97000"/>
  <!-- Stem -->
  <rect x="28" y="12" width="8" height="10" fill="#228B22" rx="2"/>
  <!-- Eyes -->
  <rect x="20" y="28" width="8" height="8" fill="#000000"/>
  <rect x="36" y="28" width="8" height="8" fill="#000000"/>
  <!-- Smile -->
  <rect x="20" y="40" width="4" height="4" fill="#000000"/>
  <rect x="24" y="42" width="4" height="4" fill="#000000"/>
  <rect x="28" y="44" width="8" height="4" fill="#000000"/>
  <rect x="36" y="42" width="4" height="4" fill="#000000"/>
  <rect x="40" y="40" width="4" height="4" fill="#000000"/>
</svg>
