<svg width="64" height="64" viewBox="0 0 64 64" xmlns="http://www.w3.org/2000/svg">
  <!-- Cute Spider -->
  <!-- Body -->
  <rect x="22" y="28" width="20" height="20" fill="#5D3FD3" rx="4"/>
  <!-- Head -->
  <rect x="24" y="20" width="16" height="12" fill="#5D3FD3" rx="3"/>
  <!-- Eyes -->
  <rect x="26" y="24" width="5" height="5" fill="#FFFFFF" rx="2"/>
  <rect x="33" y="24" width="5" height="5" fill="#FFFFFF" rx="2"/>
  <rect x="28" y="26" width="2" height="2" fill="#000000"/>
  <rect x="35" y="26" width="2" height="2" fill="#000000"/>
  <!-- Legs (4 on each side) -->
  <rect x="10" y="30" width="12" height="3" fill="#5D3FD3"/>
  <rect x="8" y="28" width="4" height="3" fill="#5D3FD3"/>
  <rect x="10" y="36" width="12" height="3" fill="#5D3FD3"/>
  <rect x="8" y="38" width="4" height="3" fill="#5D3FD3"/>
  <rect x="42" y="30" width="12" height="3" fill="#5D3FD3"/>
  <rect x="52" y="28" width="4" height="3" fill="#5D3FD3"/>
  <rect x="42" y="36" width="12" height="3" fill="#5D3FD3"/>
  <rect x="52" y="38" width="4" height="3" fill="#5D3FD3"/>
  <!-- Smile -->
  <rect x="28" y="30" width="8" height="2" fill="#FF8C00"/>
</svg>
